<svg xmlns="http://www.w3.org/2000/svg" viewBox="0 0 443.1 137.2"><g fill="#ff6852"><path d="M10.8 119.1c2.5.3 4.8 2 4.8 5 0 3.9-2.6 6.4-7.8 6.4H.1v-22.2H7c5.2 0 7.4 2.5 7.4 6.1 0 2.6-1.8 4.3-3.6 4.7zm-7.6-8v6.6h3.6c3.1 0 4.5-1 4.5-3.3s-1.5-3.3-4.5-3.3H3.2zm4.3 16.6c3.2 0 4.9-1.1 4.9-3.6 0-2.4-1.7-3.6-5.6-3.6H3.2v7.2h4.3zM17.9 130.5v-9.7c0-3.8 2.4-5.9 5.7-5.9.6 0 1.2.1 1.7.2v2.7c-.6-.1-.9 0-1.2 0-1.9 0-3.2.8-3.2 3.7v8.9h-3zM27.4 110.4c0-1.1.9-2 2-2s2 .8 2 2c0 1.1-.9 1.9-2 1.9s-2-.8-2-1.9zm.5 20.1v-15.3h3v15.3h-3zM34.2 130.5v-9c0-3.8 2.5-6.6 6.6-6.6s6.6 2.7 6.6 6.6v9h-3v-8.8c0-2.5-1.2-4-3.6-4-2.4 0-3.6 1.5-3.6 4v8.8h-3zM62.7 115.2h2.6V130c0 5.2-3.9 7.2-7.4 7.2-4.3 0-7.1-2-7.7-5.6h3.2c.5 1.8 2.2 2.8 4.6 2.8 2.4 0 4.4-1.4 4.4-4.5v-1.8c-1.2 1.7-3.2 2.5-5.2 2.5-3.9 0-7.4-2.9-7.4-7.9s3.5-7.9 7.4-7.9c2.1 0 4.2.9 5.3 2.6l.2-2.2zm-.2 7.6c0-3.2-2.3-5.2-4.8-5.2s-4.9 1.9-4.9 5.2 2.4 5.2 4.9 5.2c2.4 0 4.8-2 4.8-5.2zM68.1 110.4c0-1.1.9-2 2-2s2 .8 2 2c0 1.1-.9 1.9-2 1.9s-2-.8-2-1.9zm.4 20.1v-15.3h3v15.3h-3zM74.8 130.5v-9c0-3.8 2.5-6.6 6.6-6.6s6.6 2.7 6.6 6.6v9h-3v-8.8c0-2.5-1.2-4-3.6-4-2.4 0-3.6 1.5-3.6 4v8.8h-3zM103.4 115.2h2.6V130c0 5.2-3.9 7.2-7.4 7.2-4.3 0-7.1-2-7.7-5.6h3.2c.5 1.8 2.2 2.8 4.6 2.8 2.4 0 4.4-1.4 4.4-4.5v-1.8c-1.2 1.7-3.2 2.5-5.2 2.5-3.9 0-7.4-2.9-7.4-7.9s3.5-7.9 7.4-7.9c2.1 0 4.2.9 5.3 2.6l.2-2.2zm-.3 7.6c0-3.2-2.4-5.2-4.8-5.2-2.5 0-4.9 1.9-4.9 5.2s2.4 5.2 4.9 5.2c2.5 0 4.8-2 4.8-5.2zM115.9 130.5v-9c0-3.8 2.4-6.6 6.3-6.6 3.1 0 4.7 2.1 4.9 2.8h.1c.2-.7 1.9-2.8 4.9-2.8 3.8 0 6.3 2.7 6.3 6.6v9h-3v-8.8c0-2.5-1.1-4-3.4-4s-3.4 1.5-3.4 4v8.8h-3v-8.8c0-2.5-1.1-4-3.4-4s-3.4 1.5-3.4 4v8.8h-2.9zM155.6 124.1h-11.9c.4 2.5 2.3 4 4.6 4 1.9 0 3.2-.8 3.9-2.2h3.1c-.9 2.9-3.6 4.9-6.9 4.9-4.4 0-7.7-3.2-7.7-8 0-4.7 3.2-8 7.7-8 4 0 7.3 3.4 7.3 8-.1.5-.1.8-.1 1.3zm-11.8-2.5h8.8c-.2-2.1-1.9-3.9-4.2-3.9-2.4 0-4.2 1.5-4.6 3.9zM170.3 115.2h2.6v15.3h-2.6l-.3-2.4c-1.1 1.8-3.2 2.7-5.3 2.7-3.9 0-7.4-2.9-7.4-8s3.5-8 7.4-8c2.1 0 4.2.9 5.3 2.7l.3-2.3zm-.3 7.7c0-3.2-2.3-5.2-4.8-5.2s-4.9 1.9-4.9 5.2c0 3.3 2.4 5.2 4.9 5.2 2.5 0 4.8-2 4.8-5.2zM176.2 130.5v-9c0-3.8 2.5-6.6 6.6-6.6s6.6 2.7 6.6 6.6v9h-3v-8.8c0-2.5-1.2-4-3.6-4-2.4 0-3.6 1.5-3.6 4v8.8h-3zM192.5 110.4c0-1.1.9-2 2-2s2 .8 2 2c0 1.1-.9 1.9-2 1.9s-2-.8-2-1.9zm.4 20.1v-15.3h3v15.3h-3zM199.4 130.5v-9c0-3.8 2.5-6.6 6.6-6.6s6.6 2.7 6.6 6.6v9h-3v-8.8c0-2.5-1.2-4-3.6-4-2.4 0-3.6 1.5-3.6 4v8.8h-3zM227.9 115.2h2.6V130c0 5.2-3.9 7.2-7.4 7.2-4.3 0-7.1-2-7.7-5.6h3.2c.5 1.8 2.2 2.8 4.6 2.8 2.4 0 4.4-1.4 4.4-4.5v-1.8c-1.2 1.7-3.2 2.5-5.2 2.5-3.9 0-7.4-2.9-7.4-7.9s3.5-7.9 7.4-7.9c2.1 0 4.2.9 5.3 2.6l.2-2.2zm-.2 7.6c0-3.2-2.3-5.2-4.8-5.2s-4.9 1.9-4.9 5.2 2.4 5.2 4.9 5.2c2.4 0 4.8-2 4.8-5.2zM248.9 117.8h-4.4v7.4c0 2.2 1 2.8 3.1 2.8h1.1v2.5c-.7.2-1.3.2-2 .2-3 0-5.3-1.9-5.3-5.1v-7.8h-2.7v-2.5h2.7v-5.1h3v5.1h4.4v2.5zM250.1 122.9c0-4.5 3.4-8 7.9-8s7.9 3.5 7.9 8-3.4 8-7.9 8c-4.5-.1-7.9-3.5-7.9-8zm12.8 0c0-3-2.1-5.2-4.9-5.2-2.8 0-4.9 2.2-4.9 5.2s2.1 5.2 4.9 5.2c2.8 0 4.9-2.2 4.9-5.2zM274.9 130.5v-9c0-3.8 2.4-6.6 6.3-6.6 3.1 0 4.7 2.1 4.9 2.8h.1c.2-.7 1.9-2.8 4.9-2.8 3.8 0 6.3 2.7 6.3 6.6v9h-3v-8.8c0-2.5-1.1-4-3.4-4s-3.4 1.5-3.4 4v8.8h-3v-8.8c0-2.5-1.1-4-3.4-4s-3.4 1.5-3.4 4v8.8h-2.9zM299.7 122.9c0-4.5 3.4-8 7.9-8s7.9 3.5 7.9 8-3.4 8-7.9 8c-4.5-.1-7.9-3.5-7.9-8zm12.8 0c0-3-2.1-5.2-4.9-5.2s-4.9 2.2-4.9 5.2 2.1 5.2 4.9 5.2 4.9-2.2 4.9-5.2zM321.9 130.5l-6-15.3h3.3l3.5 9.6c.2.6.5 1.3.6 1.9h.1c.1-.6.4-1.3.6-1.9l3.5-9.6h3.3l-6 15.3h-2.9zM345.9 124.1H334c.4 2.5 2.3 4 4.6 4 1.9 0 3.2-.8 3.9-2.2h3.1c-.9 2.9-3.6 4.9-6.9 4.9-4.4 0-7.7-3.2-7.7-8 0-4.7 3.2-8 7.7-8 4 0 7.3 3.4 7.3 8-.1.5-.1.8-.1 1.3zm-11.9-2.5h8.8c-.2-2.1-1.9-3.9-4.2-3.9-2.3 0-4.1 1.5-4.6 3.9zM348.7 130.5v-9c0-3.8 2.4-6.6 6.3-6.6 3.1 0 4.7 2.1 4.9 2.8h.1c.2-.7 1.9-2.8 4.9-2.8 3.8 0 6.3 2.7 6.3 6.6v9h-3v-8.8c0-2.5-1.1-4-3.4-4s-3.4 1.5-3.4 4v8.8h-3v-8.8c0-2.5-1.1-4-3.4-4s-3.4 1.5-3.4 4v8.8h-2.9zM388.4 124.1h-11.9c.4 2.5 2.3 4 4.6 4 1.9 0 3.2-.8 3.9-2.2h3.1c-.9 2.9-3.6 4.9-6.9 4.9-4.4 0-7.7-3.2-7.7-8 0-4.7 3.2-8 7.7-8 4 0 7.3 3.4 7.3 8 0 .5 0 .8-.1 1.3zm-11.8-2.5h8.8c-.2-2.1-1.9-3.9-4.2-3.9-2.4 0-4.2 1.5-4.6 3.9zM391.2 130.5v-9c0-3.8 2.5-6.6 6.6-6.6s6.6 2.7 6.6 6.6v9h-3v-8.8c0-2.5-1.2-4-3.6-4-2.4 0-3.6 1.5-3.6 4v8.8h-3zM416.3 117.8h-4.4v7.4c0 2.2 1 2.8 3.1 2.8h1.1v2.5c-.7.2-1.3.2-2 .2-3 0-5.3-1.9-5.3-5.1v-7.8h-2.7v-2.5h2.7v-5.1h3v5.1h4.4v2.5z"/></g><path d="M115.5 57c0-17.4 13.1-31 31-31 18 0 31.1 13.5 31.1 31s-13.1 30.8-31.1 30.8c-17.9.1-31-13.3-31-30.8zm48.8 0c0-11.1-7.6-19.1-17.8-19.1-10.2 0-17.7 8-17.7 19.1 0 11 7.5 19 17.7 19s17.8-8 17.8-19zM201.8 86.6l-23.1-59.3h14.4L205.4 62c.9 2.7 1.9 5.8 2.4 8.1h.3c.6-2.3 1.6-5.4 2.5-8.1l12.3-34.6h14.4l-23 59.3h-12.5zM305.9 86.6V.5h13.3v86.1h-13.3zM333.5 86.6V.5h13.3v86.1h-13.3zM404.8 27.3h11.5v59.3h-11.8l-1-9.1c-4 6.7-11.6 10.4-20.2 10.4-14.5 0-28.2-11-28.2-30.8 0-20 13.7-31 28.2-31 8.6 0 16.2 3.7 20.2 10.5l1.3-9.3zM403.5 57c0-11.9-8.7-19-17.4-19-9.5 0-17.7 7.1-17.7 19 0 12 8.2 19 17.7 19 8.8 0 17.4-6.8 17.4-19zM114.2 86.5H100L85 39l7.4-23.7zM26.7 0L0 86.5h14.2L36 17.3h7.7V0zM43.7 17.3h13.2v17.6H43.7zM251.8 61c0 .1.2.9.2.9 1.8 9.1 8.2 14.4 16.8 14.4 7.2 0 11.8-2.5 14.3-7.5h13c-3.7 12-14.5 19.1-27.2 19.1-17.7 0-30.2-12.6-30.2-30.8 0-18.1 12.4-31 30.1-31 16.2 0 28.8 13.3 28.8 31 0 1.9 0 2.9-.1 4.8h-38.2l2.7-8.3c.4-1.1 1.4-1.8 2.5-1.8h19.9c-.8-7.6-7.2-14-15.7-14-8.7 0-15 5.6-16.8 14 .1-.1-.7 3.5-.1 9.2zM65.3 74.7c-2 6.3-6.2 10.8-12.8 11.7-1.4.2-10 .2-11.2 0-.1 0-.2-.2 0-.3.2 0 .3-.1.5-.1 5.8-1.1 6.9-5.1 9-10.6 1-2.7 1.8-5.6 2.6-8.4l13-41.3c1.3-4.5 2.6-9 4.1-13.8 2-6.3 6.2-10.8 12.8-11.7.4-.1 2.6-.2 4.4-.2 2.7 0 6 0 6.7.2.1 0 .2.2 0 .3-.2 0-.3.1-.5.1-4.4.8-5.8 3.3-7.4 6.9-.5 1.1-1 2.4-1.5 3.8-1 2.7-1.8 5.6-2.6 8.4l-17.1 55z" fill="#191998"/><g><path d="M420.4 2.2V0h9.3v2.2h-3.4V11h-2.4V2.2h-3.5zM440 0h3.1v11h-2.4V4v-.7c-.1.3-.2.6-.3.8l-2.8 6.8h-1.8L433 4.1c-.1-.2-.2-.5-.3-.8V11h-2.4V0h3.1l2.6 6.2c.2.5.4.9.6 1.7.2-.7.4-1.1.6-1.7L440 0z" fill="#191998"/></g></svg>