<?xml version="1.0" encoding="UTF-8"?>
<svg id="a" data-name="Layer 1" xmlns="http://www.w3.org/2000/svg" width="1580.738" height="176.9" viewBox="0 0 1580.738 176.9">
  <g>
    <path d="m80.966,57.727h14.356v29.733c0,5.336,1.234,9.617,3.705,12.845,2.469,3.23,5.958,4.843,10.466,4.843s8.026-1.613,10.559-4.843c2.531-3.229,3.798-7.509,3.798-12.845v-29.733h14.356v29.733c0,9.659-2.686,17.198-8.058,22.616-5.372,5.421-12.258,8.128-20.655,8.128s-15.253-2.695-20.563-8.086c-5.311-5.391-7.965-12.943-7.965-22.658v-29.733Z" fill="#fff" stroke="#fff" stroke-linecap="round" stroke-linejoin="round" stroke-width="4.893"/>
    <path d="m170.89,58.274h16.116l28.899,40.009v-40.009h14.449v59.383h-16.116l-28.991-40.094v40.094h-14.356v-59.383Z" fill="#fff" stroke="#fff" stroke-linecap="round" stroke-linejoin="round" stroke-width="4.893"/>
    <path d="m264.914,117.656v-59.383h21.859c9.57,0,17.536,2.737,23.897,8.211,6.359,5.476,9.54,12.649,9.54,21.521s-3.181,16.033-9.54,21.479c-6.361,5.447-14.326,8.17-23.897,8.17h-21.859Zm14.356-47.844v36.303h7.503c5.433,0,10.003-1.726,13.708-5.179,3.705-3.455,5.557-7.762,5.557-12.93,0-5.223-1.852-9.56-5.557-13.013-3.705-3.453-8.275-5.181-13.708-5.181h-7.503Z" fill="#fff" stroke="#fff" stroke-linecap="round" stroke-linejoin="round" stroke-width="4.893"/>
    <path d="m349.835,117.656v-59.383h45.2v11.539h-30.843v12.297h27.787v11.625h-27.787v12.381h30.843v11.54h-45.2Z" fill="#fff" stroke="#fff" stroke-linecap="round" stroke-linejoin="round" stroke-width="4.893"/>
    <path d="m434.101,58.274h21.581c9.015,0,15.73,1.713,20.145,5.137,4.414,3.426,6.622,8.002,6.622,13.731,0,7.748-3.674,13.169-11.022,16.256l13.523,24.259h-14.727l-10.837-21.647c-.803.056-2.038.083-3.705.083h-7.225v21.564h-14.356v-59.383Zm14.356,11.539v14.741h7.225c4.692,0,8.165-.548,10.42-1.643,2.254-1.095,3.381-3.018,3.381-5.769s-1.127-4.661-3.381-5.729c-2.255-1.066-5.728-1.6-10.42-1.6h-7.225Z" fill="#fff" stroke="#fff" stroke-linecap="round" stroke-linejoin="round" stroke-width="4.893"/>
    <path d="m514.586,58.274h15.561l15.283,43.462,10.837-43.462h13.986l10.744,43.462,15.282-43.462h15.654l-22.508,59.383h-16.765l-9.448-34.029-9.447,34.029h-16.765l-22.415-59.383Z" fill="#fff" stroke="#fff" stroke-linecap="round" stroke-linejoin="round" stroke-width="4.893"/>
    <path d="m747.91,58.274h16.024l17.598,28.133,17.691-28.133h16.024l-26.583,40.851v18.532h-14.264v-18.532l-26.49-40.851Z" fill="#fff" stroke="#fff" stroke-linecap="round" stroke-linejoin="round" stroke-width="4.893"/>
    <path d="m925.6,100.052c0,6.179-2.33,10.838-6.992,13.984-4.663,3.145-11.161,4.716-19.498,4.716-2.964,0-5.881-.239-8.753-.716-2.871-.476-5.311-1.052-7.317-1.726-2.007-.674-3.797-1.333-5.372-1.98-1.574-.644-2.765-1.222-3.566-1.726l-1.111-.674,6.946-10.361c.741.451,1.76.997,3.057,1.643s3.736,1.503,7.317,2.569c3.581,1.068,6.885,1.6,9.912,1.6,7.038,0,10.558-2.385,10.558-7.159,0-1.908-1.236-3.496-3.705-4.76-2.47-1.263-5.481-2.316-9.03-3.158-3.552-.843-7.102-1.812-10.652-2.907-3.551-1.095-6.562-2.78-9.03-5.053-2.471-2.274-3.706-5.124-3.706-8.55,0-5.95,2.455-10.542,7.364-13.772,4.909-3.227,10.79-4.843,17.644-4.843,2.902,0,5.758.267,8.569.801,2.808.534,5.155,1.193,7.038,1.979,1.883.788,3.551,1.573,5.003,2.359,1.449.787,2.546,1.432,3.288,1.938l1.018.842-6.669,9.771c-.618-.448-1.498-1.01-2.64-1.684-1.143-.674-3.426-1.572-6.854-2.696-3.427-1.123-6.748-1.685-9.957-1.685-3.274,0-5.589.716-6.947,2.148-1.359,1.432-2.037,2.963-2.037,4.592,0,1.123.894,2.12,2.686,2.99,1.79.871,4.013,1.6,6.668,2.189,2.655.59,5.558,1.377,8.707,2.359,3.149.983,6.051,2.093,8.707,3.328,2.653,1.236,4.876,3.032,6.668,5.391s2.686,5.11,2.686,8.254Z" fill="#fff" stroke="#fff" stroke-linecap="round" stroke-linejoin="round" stroke-width="4.893"/>
    <path d="m960.705,117.656v-59.383h45.2v11.539h-30.843v12.297h27.787v11.625h-27.787v12.381h30.843v11.54h-45.2Z" fill="#fff" stroke="#fff" stroke-linecap="round" stroke-linejoin="round" stroke-width="4.893"/>
    <path d="m1043.789,58.274h21.581c9.015,0,15.731,1.713,20.145,5.137,4.415,3.426,6.623,8.002,6.623,13.731,0,7.748-3.675,13.169-11.021,16.256l13.523,24.259h-14.727l-10.837-21.647c-.804.056-2.038.083-3.706.083h-7.224v21.564h-14.356v-59.383Zm14.356,11.539v14.741h7.224c4.692,0,8.165-.548,10.421-1.643,2.253-1.095,3.38-3.018,3.38-5.769s-1.127-4.661-3.38-5.729c-2.256-1.066-5.729-1.6-10.421-1.6h-7.224Z" fill="#fff" stroke="#fff" stroke-linecap="round" stroke-linejoin="round" stroke-width="4.893"/>
    <path d="m1120.252,58.274h15.561l17.69,43.462,17.692-43.462h15.561l-24.916,59.383h-16.673l-24.914-59.383Z" fill="#fff" stroke="#fff" stroke-linecap="round" stroke-linejoin="round" stroke-width="4.893"/>
    <path d="m1219.996,58.274h14.356v59.383h-14.356v-59.383Z" fill="#fff" stroke="#fff" stroke-linecap="round" stroke-linejoin="round" stroke-width="4.893"/>
    <path d="m1302.498,57.221c5.496,0,10.574,1.025,15.236,3.075,4.662,2.051,8.475,4.899,11.439,8.549l-11.3,8.086c-3.706-4.435-8.831-6.654-15.376-6.654-5.496,0-10.065,1.657-13.707,4.97-3.645,3.313-5.466,7.553-5.466,12.718s1.821,9.406,5.466,12.72c3.642,3.313,8.212,4.969,13.707,4.969,6.422,0,11.547-2.274,15.376-6.822l11.3,8.169c-2.964,3.707-6.778,6.586-11.439,8.634-4.662,2.049-9.741,3.075-15.236,3.075-9.51,0-17.444-2.877-23.804-8.634-6.361-5.755-9.54-13.125-9.54-22.11s3.179-16.354,9.54-22.11c6.359-5.755,14.294-8.634,23.804-8.634Z" fill="#fff" stroke="#fff" stroke-linecap="round" stroke-linejoin="round" stroke-width="4.893"/>
    <path d="m1363.096,117.656v-59.383h45.2v11.539h-30.843v12.297h27.787v11.625h-27.787v12.381h30.843v11.54h-45.2Z" fill="#fff" stroke="#fff" stroke-linecap="round" stroke-linejoin="round" stroke-width="4.893"/>
    <path d="m1494.899,100.052c0,6.179-2.33,10.838-6.992,13.984-4.663,3.145-11.161,4.716-19.498,4.716-2.964,0-5.881-.239-8.753-.716-2.871-.476-5.311-1.052-7.317-1.726-2.007-.674-3.797-1.333-5.372-1.98-1.574-.644-2.765-1.222-3.566-1.726l-1.111-.674,6.946-10.361c.741.451,1.76.997,3.057,1.643s3.736,1.503,7.317,2.569c3.581,1.068,6.885,1.6,9.912,1.6,7.038,0,10.558-2.385,10.558-7.159,0-1.908-1.236-3.496-3.705-4.76-2.47-1.263-5.481-2.316-9.03-3.158-3.552-.843-7.102-1.812-10.652-2.907-3.551-1.095-6.562-2.78-9.03-5.053-2.471-2.274-3.706-5.124-3.706-8.55,0-5.95,2.455-10.542,7.364-13.772,4.909-3.227,10.79-4.843,17.644-4.843,2.902,0,5.758.267,8.569.801,2.808.534,5.155,1.193,7.038,1.979,1.883.788,3.551,1.573,5.003,2.359,1.449.787,2.546,1.432,3.288,1.938l1.018.842-6.669,9.771c-.618-.448-1.498-1.01-2.64-1.684-1.143-.674-3.426-1.572-6.854-2.696-3.427-1.123-6.748-1.685-9.957-1.685-3.274,0-5.589.716-6.947,2.148-1.359,1.432-2.037,2.963-2.037,4.592,0,1.123.894,2.12,2.686,2.99,1.79.871,4.013,1.6,6.668,2.189,2.655.59,5.558,1.377,8.707,2.359,3.149.983,6.051,2.093,8.707,3.328,2.653,1.236,4.876,3.032,6.668,5.391s2.686,5.11,2.686,8.254Z" fill="#fff" stroke="#fff" stroke-linecap="round" stroke-linejoin="round" stroke-width="4.893"/>
  </g>
  <g>
    <polyline points="637.863 109.608 683.183 60.936 730.043 109.674" fill="none" stroke="#fff" stroke-linecap="round" stroke-linejoin="round" stroke-width="9.927"/>
    <ellipse cx="683.953" cy="111.703" rx="8.352" ry="8.686" fill="#fff"/>
  </g>
</svg>