<?xml version="1.0" standalone="no"?>
<!DOCTYPE svg PUBLIC "-//W3C//DTD SVG 20010904//EN"
 "http://www.w3.org/TR/2001/REC-SVG-20010904/DTD/svg10.dtd">
<svg version="1.0" xmlns="http://www.w3.org/2000/svg"
 width="1111.000000pt" height="118.000000pt" viewBox="0 0 1111.000000 118.000000"
 preserveAspectRatio="xMidYMid meet">

<g transform="translate(0.000000,118.000000) scale(0.100000,-0.100000)"
fill="000000" stroke="none">
<path d="M4795 1089 c-4 -6 -4 -29 -1 -52 6 -41 4 -45 -105 -192 -144 -196
-149 -203 -149 -248 0 -50 38 -87 90 -87 45 0 59 10 109 80 113 154 147 199
152 200 4 0 49 -51 101 -112 321 -383 493 -521 724 -583 66 -18 282 -31 338
-21 l36 7 0 63 c0 35 -3 76 -6 92 l-5 29 -100 -3 c-306 -11 -463 90 -845 543
-176 209 -225 258 -276 280 -44 18 -55 19 -63 4z"/>
<path d="M6435 1087 c-121 -41 -175 -103 -175 -204 0 -103 54 -151 218 -192
121 -31 132 -36 132 -57 0 -42 -131 -41 -235 1 -32 14 -60 23 -61 22 -11 -12
-63 -151 -59 -157 3 -5 31 -19 63 -31 49 -19 77 -23 192 -23 129 -1 138 0 193
28 44 21 67 40 89 75 27 41 29 53 26 113 -3 58 -8 71 -33 99 -42 43 -70 56
-186 83 -56 14 -109 31 -117 40 -15 15 -15 17 0 33 24 23 119 20 187 -6 30
-11 58 -18 62 -16 15 10 62 146 53 154 -41 39 -270 64 -349 38z"/>
<path d="M9413 1086 c-110 -36 -188 -110 -224 -213 -54 -152 20 -327 170 -400
51 -26 66 -28 171 -28 105 0 120 2 170 27 31 15 69 41 85 58 l29 30 -30 31
c-16 17 -46 44 -67 61 l-37 30 -30 -26 c-69 -58 -157 -58 -214 -1 -82 82 -46
235 63 265 49 13 107 -3 147 -41 l30 -29 65 55 c35 31 65 62 67 69 4 19 -54
65 -118 94 -68 30 -211 40 -277 18z"/>
<path d="M10635 1087 c-64 -22 -100 -43 -133 -81 -35 -40 -47 -86 -39 -154 4
-38 12 -53 49 -87 36 -34 58 -45 128 -64 146 -38 165 -45 168 -63 9 -45 -124
-47 -232 -3 l-58 24 -34 -75 c-19 -41 -32 -79 -29 -84 3 -5 31 -19 63 -31 49
-19 77 -23 192 -23 129 -1 138 0 193 27 149 74 163 261 25 333 -15 8 -73 25
-129 38 -56 14 -109 31 -117 40 -15 15 -15 17 0 33 24 23 118 20 192 -6 33
-11 60 -20 61 -18 20 36 56 140 52 150 -16 41 -267 72 -352 44z"/>
<path d="M120 882 c0 -234 8 -282 61 -345 17 -21 54 -50 83 -65 47 -25 60 -27
166 -27 105 0 119 2 165 27 59 31 84 57 116 118 23 43 24 56 27 273 l3 227
-104 0 -105 0 -4 -207 c-3 -222 -7 -240 -55 -262 -38 -17 -70 -13 -100 13
l-28 24 -5 214 -5 213 -107 3 -108 3 0 -209z"/>
<path d="M840 770 l0 -320 105 0 104 0 3 139 3 139 115 -136 116 -137 92 -3
92 -3 -2 318 -3 318 -102 3 -103 3 0 -142 c0 -168 14 -170 -141 16 l-104 125
-87 0 -88 0 0 -320z"/>
<path d="M1570 770 l0 -320 188 0 c216 0 275 11 357 65 91 61 125 132 125 259
0 92 -17 139 -70 200 -79 90 -174 116 -427 116 l-173 0 0 -320z m387 126 c44
-22 67 -69 66 -134 -1 -94 -59 -142 -170 -142 l-63 0 0 151 0 152 68 -5 c37
-3 82 -12 99 -22z"/>
<path d="M2327 1083 c-4 -3 -7 -147 -7 -320 l0 -313 266 2 266 3 1 78 2 77
-157 0 -158 0 0 40 0 40 130 0 130 0 0 80 0 80 -130 0 -130 0 0 35 0 35 150 0
150 0 0 85 0 85 -253 0 c-140 0 -257 -3 -260 -7z"/>
<path d="M2937 1083 c-4 -3 -7 -147 -7 -320 l0 -313 110 0 110 0 0 80 0 80 29
0 c25 0 36 -11 83 -80 l53 -79 113 -1 c61 0 112 4 112 8 0 5 -27 48 -61 96
l-61 87 41 38 c52 48 71 94 71 171 0 123 -75 203 -215 229 -63 12 -367 15
-378 4z m343 -178 c26 -13 30 -21 30 -55 0 -21 -7 -45 -15 -54 -18 -18 -69
-29 -111 -24 -29 3 -29 4 -32 76 l-3 72 51 0 c28 0 64 -7 80 -15z"/>
<path d="M3570 1085 c0 -3 30 -96 66 -208 36 -111 82 -253 102 -315 l36 -112
116 0 116 0 49 153 c27 83 52 156 56 161 4 4 19 -32 34 -80 15 -49 36 -122 48
-161 l22 -73 117 0 116 0 30 92 c81 249 172 535 172 541 0 4 -46 6 -102 5
l-102 -3 -56 -172 c-30 -95 -57 -173 -60 -173 -4 0 -16 35 -29 78 -12 42 -36
121 -52 175 l-31 97 -98 0 -99 0 -57 -175 c-32 -96 -60 -172 -62 -170 -3 2
-28 80 -56 172 l-52 168 -112 3 c-62 1 -112 0 -112 -3z"/>
<path d="M5300 1079 c0 -6 52 -97 115 -203 l115 -191 0 -118 0 -117 110 0 110
0 0 117 0 118 115 191 c63 106 115 197 115 203 0 7 -35 11 -99 11 l-100 0 -63
-105 c-35 -58 -66 -105 -69 -105 -4 0 -35 47 -69 105 l-62 105 -109 0 c-71 0
-109 -4 -109 -11z"/>
<path d="M6890 1085 c0 -3 0 -146 0 -317 l-1 -313 266 -3 265 -2 0 80 0 80
-160 0 -160 0 0 40 0 39 133 3 132 3 3 78 3 77 -136 0 -135 0 0 35 0 34 153 3
152 3 0 80 0 80 -257 3 c-142 1 -258 0 -258 -3z"/>
<path d="M7500 771 l0 -322 108 3 107 3 1 75 1 75 29 0 c25 0 36 -11 82 -77
l53 -78 116 0 115 0 -18 27 c-10 16 -39 59 -65 97 l-48 69 44 39 c102 90 95
267 -14 342 -78 54 -103 59 -313 64 l-198 4 0 -321z m334 139 c56 -21 59 -98
5 -125 -30 -16 -127 -18 -121 -2 1 4 2 36 2 72 l0 65 44 0 c25 0 56 -4 70 -10z"/>
<path d="M8110 1083 c0 -5 60 -148 133 -318 l132 -310 109 0 108 0 133 310
c73 171 129 314 125 318 -4 4 -51 6 -106 5 l-98 -3 -75 -177 c-41 -98 -77
-178 -80 -178 -3 0 -38 80 -78 178 l-71 177 -116 3 c-64 1 -116 -1 -116 -5z"/>
<path d="M8880 770 l0 -321 108 3 107 3 0 315 0 315 -107 3 -108 3 0 -321z"/>
<path d="M9875 1078 c-3 -7 -4 -150 -3 -318 l3 -305 268 -3 267 -2 0 80 0 79
-157 3 -158 3 -3 37 -3 37 133 3 133 3 3 78 3 77 -136 0 -135 0 0 35 0 34 153
3 152 3 0 80 0 80 -258 3 c-202 2 -259 0 -262 -10z"/>
<path d="M4847 662 c-35 -39 -6 -112 43 -112 27 0 70 43 70 70 0 50 -79 80
-113 42z"/>
</g>
</svg>
